<svg fill="#546e7a" xmlns="http://www.w3.org/2000/svg" viewBox="0 0 196 196"><path d="M142.93,198H57.07A55.14,55.14,0,0,1,2,142.93V57.07A55.14,55.14,0,0,1,57.07,2h85.86A55.14,55.14,0,0,1,198,57.07v85.86A55.14,55.14,0,0,1,142.93,198ZM57.07,19A38.12,38.12,0,0,0,19,57.07v85.86A38.12,38.12,0,0,0,57.07,181h85.86A38.12,38.12,0,0,0,181,142.93V57.07A38.12,38.12,0,0,0,142.93,19Z" transform="translate(-2 -2)"/><path d="M100,150a50,50,0,1,1,50-50A50.06,50.06,0,0,1,100,150Zm0-83a33,33,0,1,0,33,33A33,33,0,0,0,100,67Z" transform="translate(-2 -2)"/><circle cx="151" cy="46" r="11.5"/></svg>