
<svg fill="#546e7a" xmlns="http://www.w3.org/2000/svg" 
	 viewBox="0 0 200 200" style="enable-background:new 0 0 200 200;" xml:space="preserve">
<path d="M181.94,2.5H17.56C8.96,2.5,2,9.46,2,18.06v164.39C2,191.04,8.96,198,17.56,198h164.39c8.59,0,15.56-6.96,15.56-15.56V18.06
	C197.5,9.46,190.54,2.5,181.94,2.5z M60.5,169.5h-29v-94h29V169.5z M46.5,63.5c-9.39,0-17-7.61-17-17s7.61-17,17-17s17,7.61,17,17
	S55.89,63.5,46.5,63.5z M170,169.5h-30c0,0,0-43.5,0-54.5s-5.5-16-16-16c-12.91,0-15.91,13.23-16.5,21.71v48.79h-29v-94h29v11.51
	C112.07,81.38,121.05,73,134,73c21.5,0,36,10.5,36,36C170,146,170,169.5,170,169.5z"/>
</svg>
