
<svg fill="#546e7a" xmlns="http://www.w3.org/2000/svg" 
	 viewBox="0 0 200 200" style="enable-background:new 0 0 200 200;" xml:space="preserve">
<path d="M62.81,178.57c73.98,0,114.44-61.29,114.44-114.44c0-1.74,0-3.47-0.12-5.2c7.87-5.69,14.67-12.74,20.07-20.82
	c-7.34,3.25-15.13,5.39-23.1,6.33c8.4-5.03,14.68-12.93,17.68-22.25c-7.9,4.69-16.53,7.99-25.54,9.76
	c-15.23-16.2-40.71-16.98-56.91-1.75C98.89,40.03,94.45,54.67,97.7,68.64c-32.34-1.62-62.47-16.9-82.89-42.02
	C4.13,44.99,9.58,68.5,27.26,80.31c-6.4-0.19-12.66-1.92-18.26-5.03c0,0.16,0,0.34,0,0.51c0.01,19.15,13.5,35.64,32.27,39.43
	c-5.92,1.61-12.13,1.85-18.16,0.69c5.27,16.38,20.37,27.61,37.58,27.93c-14.24,11.19-31.84,17.27-49.95,17.25
	c-3.2-0.01-6.4-0.2-9.57-0.58c18.39,11.8,39.8,18.06,61.65,18.04"/>
</svg>
