<svg xmlns="http://www.w3.org/2000/svg" xmlns:xlink="http://www.w3.org/1999/xlink" viewBox="0 0 17 28"><defs><path id="a" d="M7.79 15.9c.13-.29.25-.58.37-.87.04-.09.08-.17.12-.25.07-.13.14-.26.19-.4.09-.22.14-.45.25-.66.07-.14.1-.26.07-.42-.05-.02-.09-.05-.14-.06-.37-.09-.75-.18-1.13-.19-.32-.01-.64-.05-.96-.07-.25-.02-.5-.12-.75-.02-.09.04-.19.06-.29.08-.44.1-.89.19-1.33.3-.36.09-.71.21-1.04.39-.21.11-.37.27-.5.48a.4.4 0 01-.1.12c-.28.22-.52.49-.69.82-.09.17-.2.34-.3.51-.12.23-.24.47-.35.72-.04.09-.01.21-.05.3-.1.27-.1.57-.16.86-.02.09 0 .2-.03.28-.11.29-.16.58-.1.88.05.23.05.47.15.68.03.06.04.12.04.19-.02.24.06.45.13.67.11.35.33.64.59.86.49.43.96.89 1.52 1.23.28.17.54.39.83.54.4.2.82.36 1.28.37.13 0 .26.02.39.04.56.1 1.12.12 1.69.08.43-.03.83-.12 1.22-.3.19-.09.38-.19.57-.3.2-.11.4-.23.59-.36.11-.07.21-.16.31-.25.38-.37.82-.69 1.04-1.21.15-.35.31-.69.43-1.05.12-.35.21-.71.25-1.08.08-.63.06-1.25 0-1.87a1.17 1.17 0 00-.07-.25c-.13-.3-.24-.61-.33-.93-.07-.22-.16-.46-.3-.64-.15-.19-.28-.39-.49-.52-.1-.06-.18-.16-.26-.26-.24-.32-.49-.61-.91-.69-.32.38-.51.85-.72 1.31-.19.42-.39.82-.6 1.23-.13.25-.28.47-.46.68-.14.17-.12.22 0 .39.07.1.12.22.14.34.06.28-.07.51-.21.73-.12.19-.3.33-.45.49-.37.42-.8.39-1.27.29-.19-.04-.28-.21-.43-.3-.12-.07-.16-.19-.16-.32 0-.06.03-.13.01-.19-.1-.38.01-.72.12-1.07.09-.27.18-.33.47-.31.1.01.2.03.29.06.12.03.22.06.35-.01.12-.07.28-.08.42-.12.06-.02.14-.04.18-.09.11-.13.23-.26.32-.4.1-.13.18-.29.25-.46"/></defs><clipPath id="b"><use xlink:href="#a" overflow="visible"/></clipPath><path clip-path="url(#b)" fill="#faab66" d="M-4.1 7.98h20.98v20.34H-4.1z"/><defs><path id="c" d="M0 0h16v16.47H0z"/></defs><clipPath id="d"><use xlink:href="#c" overflow="visible"/></clipPath><g clip-path="url(#d)"><defs><path id="e" d="M-.99-.99h17.76v17.76H-.99z"/></defs><clipPath id="f"><use xlink:href="#e" overflow="visible"/></clipPath><g clip-path="url(#f)"><defs><path id="g" d="M.56 6.1c.1.2.05.24.02.45-.01.05-.05.26-.03.31.12.27.01.54-.01.82-.01.14.01.29.03.43.04.26-.12.35 0 .61 0 .01-.02.11-.04.27-.01.12-.04.2-.03.31.01.17-.12.6-.13.77-.02.32-.15.98-.14 1.3.02 1.08-.17 1.18-.13 2.26.02.44-.2 1.2-.05 1.63.04.11.05.24.03.36-.05.29-.02.57.01.85.04-.12.09-.24.15-.36.14-.28.22-.59.37-.87.2-.38.41-.76.66-1.12.21-.3.43-.6.73-.8.19-.13.36-.28.57-.36.33-.12.6-.36.9-.53.07-.04.15-.09.22-.12.48-.17.96-.36 1.47-.4.21-.01.44-.07.64-.01.31-.02.48.03.79.06.21.02.55.05.77.06.16 0 .32.12.48.11.06-.01.13-.02.18 0 .35.13.75.08 1.09.26.01.01.03 0 .09 0 .03-.08.06-.16.08-.24.02-.08.03-.15.06-.22.07-.21.18-.41.07-.65-.09-.21 0-.33.07-.49.03-.02.05-.09.07-.11.01-.03.03-.08.02-.09-.13-.09-.16-.28.04-.55.09-.13.13-.26.17-.41.05-.21.06-.46.17-.63.14-.23.16-.47.25-.71.08-.22.16-.45.21-.68.04-.18.04-.37.05-.56l.03-.19c.04-.17.13-.29.3-.32.03-.01.06-.02.09-.02.34-.09.34-.09.39-.47-.27.01-.55.03-.83.06-.2.02-.41.03-.61.05-.09 0-.19 0-.26.05-.13.08-.25.05-.38.03-.08-.02-.16-.04-.24-.07-.05-.02-.12-.05-.15-.1-.08-.16-.1-.37-.28-.41-.21-.16-.24-.25-.38-.36-.17-.13-.26-.3-.33-.48-.07-.21-.12-.43-.17-.65a.244.244 0 010-.12c.11-.38.33-.68.67-.86.32-.18.67-.2 1.03-.2.61 0 1.21 0 1.82-.02.14 0 .28-.05.43-.07.09-.02.18-.04.27-.05l.8-.06c.23-.01.35.09.4.33.01.07.03.14.06.2.08.18.01.3-.17.37-.29.11-.59.05-.88.1-.52.08-1.05.15-1.57.2-.31.03 0-.04-.32-.11-.17-.07-.96-.06-.98-.06-.29-.01-.29.02-.51.12-.03 0-.15.08-.18.09-.1.05-.13.13-.06.24.06.08.1.18.15.26.08.14.25.36.39.27.22-.13.75-.11.81.08.3.1.31.01.6.03.44.02.68-.12 1.13-.1.17.01.33.04.5.07.2.04.25.13.19.33-.03.1-.1.18-.11.28-.02.27-.14.5-.2.75-.05.17.07.32.14.46.05.1.17.11.29.11.39 0 .78.03 1.17.03.21 0 .41-.04.61-.07.35-.05.69-.05 1.04 0 .23.03.64.01.84-.01-.04-.18-.09-.37-.12-.55-.04-.28-.04-.57-.06-.85-.03-.39-.06-.78-.2-1.15-.02-.06-.02-.13-.04-.2-.12-.55-.06-1.13-.32-1.67-.02-.04 0-.11 0-.16-.01-.33-.04-.66-.3-.92-.35-.34-.72-.66-1.3-.73a.737.737 0 01-.14-.04C13 .23 12.4.17 11.8.11 10.77-.01 9.73 0 8.69.01c-.91.01-1.82.04-2.72.07-.56.02-1.11.06-1.66.05-.77 0-.53.1-1.27.28-.1.03-.22.04-.33.07-.33.07-.67.11-.99.2-.32.09-.54.29-.65.56-.07.18-.07.37-.12.55-.01.07-.02.14-.06.19-.22.34-.31.71-.31 1.09 0 .43-.12.86.01 1.29-.08.52-.02.93-.05 1.46-.01.05-.01.24.02.28"/></defs><clipPath id="h"><use xlink:href="#g" overflow="visible"/></clipPath><g clip-path="url(#h)"><defs><path id="i" d="M0 0h16.78v16.78H0z"/></defs><clipPath id="j"><use xlink:href="#i" overflow="visible"/></clipPath><path clip-path="url(#j)" fill="#faab66" d="M-4.93-4.93h25.87v26.34H-4.93z"/></g></g></g><g><defs><path id="k" d="M16.14 7.64c-.03 0-.06.01-.09.02-.24.04-.49.04-.73.05-.22.01-.43-.01-.65.01-.23.02-.47.06-.7.09-.36.06-.58-.05-.93.01-.1.02-.22-.05-.32-.04-.14-.05-.27-.06-.41-.06h-.19c-.09.24-.17.46-.26.69-.07.17-.13.33-.21.49-.14.29-.12.34.1.57.27.27.56.51.87.73.35.25.7.51 1.06.74.27.18.52.39.76.61.19.17.43.3.64.45.1.07.19.14.28.2l.63.42c.05.03.12.05.16.09.06.06.44.35.56.44-.01-.1-.03-.43-.03-.53-.02-.34-.01-.67-.12-1-.04-.12-.08-.23-.09-.35-.06-.59-.18-1.17-.18-1.77 0-.34-.13-.66-.12-1 .02-.3 0-.58-.03-.86"/></defs><clipPath id="l"><use xlink:href="#k" overflow="visible"/></clipPath><path clip-path="url(#l)" fill="#faab66" d="M6.62 2.7h15.04v15.38H6.62z"/></g><g><defs><path id="m" d="M.37 10.51H17v17.12H.37z"/></defs><clipPath id="n"><use xlink:href="#m" overflow="visible"/></clipPath><g clip-path="url(#n)"><defs><path id="o" d="M0 9.87h17.76v18.75H0z"/></defs><clipPath id="p"><use xlink:href="#o" overflow="visible"/></clipPath><g clip-path="url(#p)"><defs><path id="q" d="M16.92 15.82c-.01-.08-.02-.16 0-.24.07-.33.03-.64-.06-.96-.03-.09-.93-.58-1.14-.69-.22-.12-.42-.28-.61-.46-.09-.08-.21-.14-.31-.2-.48-.3-.97-.59-1.45-.89-.16-.1-.33-.17-.48-.27-.64-.42-1.16-.98-1.72-1.5-.03-.03-.07-.06-.12-.1-.05.15-.09.27-.13.4-.09.31-.16.36-.47.3-.09.12-.12.25-.14.4-.04.23-.13.45-.21.68-.03.09-.08.17-.09.27-.03.22-.02.25.19.33.35.13.66.33.94.58.17.15.29.35.44.52.03.04.05.08.09.11.25.16.37.44.58.63.28.25.37.59.51.91.09.22.15.46.15.72 0 .14.07.29.09.43.04.35.07.69.09 1.04.03.44-.04.87-.12 1.3-.05.27-.07.55-.13.82-.03.17-.1.33-.16.49-.07.18-.13.36-.21.53-.1.22-.19.46-.34.64-.2.24-.38.5-.58.74-.18.22-.33.47-.54.67-.03.02-.04.07-.06.1-.16.26-.4.44-.64.61-.17.13-.41.17-.61.26-.08.03-.16.07-.22.13-.37.33-.8.45-1.27.45-.16 0-.32.01-.48.03-.31.03-.62.07-.93.12-.1.01-.19.06-.29.07-.17.03-.34.06-.52.06-.42 0-.82-.06-1.21-.25-.2-.1-.43-.15-.65-.22-.34-.11-.67-.26-.98-.45-.39-.25-.79-.49-1.19-.73-.09-.07-.17-.14-.26-.2-.2-.16-.4-.32-.58-.5a.862.862 0 01-.22-.41c-.05-.18-.15-.35-.24-.51-.1-.17-.21-.31-.26-.52v-.01c.03.51.06 1.03.1 1.54.01.09.04.19.06.28.02.08.05.16.05.24-.02.71.23 1.38.41 2.07.08.31.26.58.57.78.06.04.11.1.17.14.42.31.75.7 1.23.97.22.12.44.23.7.26.24.03.48.04.73.05 1.42.07 2.85.16 4.28.12.32-.01.65 0 .97.01.32.02.64.06.97.08.4.02.81.03 1.21.04.68.01 1.36.01 2.04-.02.41-.02.81-.1 1.06-.41.04-.05.12-.09.18-.13.27-.17.55-.33.81-.51.12-.08.2-.21.28-.32.3-.48.5-.99.69-1.51.12-.32.16-.62.07-.95a2.34 2.34 0 01-.08-.64c.01-.63-.07-1.27 0-1.9.03-.26.05-.51.07-.77.01-.11.01-.22-.01-.32-.09-.49-.06-.97-.01-1.46.09-.96.1-1.91-.01-2.87"/></defs><clipPath id="r"><use xlink:href="#q" overflow="visible"/></clipPath><g clip-path="url(#r)"><defs><path id="s" d="M0 9.87h17.76v17.76H0z"/></defs><clipPath id="t"><use xlink:href="#s" overflow="visible"/></clipPath><path clip-path="url(#t)" fill="#faab66" d="M-4.57 5.58h26.5v26.99h-26.5z"/></g></g></g></g></svg>